<svg width="48" height="48" viewBox="0 0 48 48" fill="none" xmlns="http://www.w3.org/2000/svg">
<g clip-path="url(#clip0_166_1012)">
<path d="M36.75 0H11.25C5.0368 0 0 5.0368 0 11.25V36.75C0 42.9632 5.0368 48 11.25 48H36.75C42.9632 48 48 42.9632 48 36.75V11.25C48 5.0368 42.9632 0 36.75 0Z" fill="black"/>
<path d="M14.8572 12.8889C12.9848 15.6295 13.2181 19.1949 14.6446 22.1036L14.7495 22.3108L14.8203 22.4421C14.8335 22.4676 14.8487 22.4927 14.8622 22.5174C14.887 22.5636 14.9118 22.6078 14.933 22.6532L15.0695 22.8917L15.1475 23.0229L15.3059 23.2753L15.3768 23.3816C15.4477 23.4951 15.5277 23.6077 15.6064 23.7189C15.6082 23.7217 15.6107 23.7249 15.6128 23.7277C15.6252 23.7456 15.639 23.7632 15.6482 23.781C15.7163 23.8766 15.79 23.9709 15.8609 24.0645L15.9396 24.1665L16.1327 24.4084L16.2064 24.4984C16.2943 24.6043 16.3841 24.7089 16.4758 24.8117L16.4815 24.8173C16.485 24.8218 16.4885 24.8244 16.4921 24.8289C16.5809 24.9292 16.6722 25.0273 16.7657 25.1231L16.8536 25.2131L17.0723 25.4316L17.1616 25.518C17.2598 25.6121 17.3597 25.7046 17.461 25.7955L17.5177 25.845L17.7896 26.079L17.9023 26.1705L18.1291 26.3477L18.2503 26.4416L18.5969 26.6949C18.6058 26.7009 18.6136 26.7073 18.6225 26.7133C18.704 26.7701 18.7866 26.8251 18.8695 26.88L18.9765 26.9526L19.3635 27.1937L19.4706 27.255L19.7612 27.4207C19.8143 27.4498 19.8686 27.4776 19.9217 27.5051L20.1295 27.6114L20.1773 27.6349L20.2624 27.6767L20.5918 27.8319L20.6618 27.8674C20.7889 27.9238 20.917 27.978 21.046 28.0299L21.1395 28.0676L21.502 28.2043L21.5473 28.2206C21.6812 28.2679 21.816 28.3129 21.9514 28.3554L22.0489 28.3851C22.1906 28.4276 22.3236 28.4784 22.4661 28.5056C31.5205 30.1912 34.1513 22.9676 34.1513 22.9676C31.9423 25.8986 28.0213 26.6711 24.3066 25.8111C24.1658 25.7756 24.0293 25.7342 23.8918 25.6927L23.7883 25.6573C23.6545 25.6155 23.5211 25.5711 23.3893 25.5251L23.3344 25.5049C23.2165 25.4623 23.0991 25.4181 22.9825 25.3719L22.8833 25.3322C22.7556 25.281 22.6288 25.2274 22.5032 25.1713L22.4275 25.1374L22.107 24.9849L22.015 24.9396C21.9317 24.8977 21.849 24.8548 21.7667 24.8109L21.6013 24.7222C21.5012 24.6675 21.4022 24.6109 21.3043 24.5526L21.204 24.4957C21.0735 24.4179 20.9445 24.3364 20.817 24.2548C20.7816 24.2317 20.7475 24.2074 20.7124 24.1839L20.437 23.9976L20.3485 23.9338L20.088 23.7424L19.9723 23.6537L19.7374 23.4666L19.6326 23.3816L19.3401 23.1336C19.3301 23.1246 19.3189 23.1157 19.3046 23.1062C19.2006 23.013 19.098 22.9174 18.9971 22.8212L18.9105 22.7362L18.6894 22.5157L18.603 22.4271C18.5108 22.3314 18.4205 22.2341 18.3318 22.1351C18.3276 22.1301 18.3226 22.1256 18.3184 22.1209C18.2247 22.0164 18.133 21.9099 18.0433 21.8019L17.9714 21.7147L17.7729 21.4656L17.7003 21.3735L17.4717 21.0634C15.409 18.198 14.6718 14.2463 16.3163 11.0006L14.8572 12.8889ZM20.6695 10.5796C19.3157 12.5643 19.389 15.2202 20.4452 17.319C20.6218 17.6714 20.8219 18.0116 21.0441 18.3372C21.247 18.6332 21.472 18.9859 21.7412 19.2232C21.8387 19.3296 21.9407 19.4359 22.045 19.5444C22.0712 19.5716 22.0982 19.5975 22.125 19.6249C22.2263 19.7252 22.3298 19.8232 22.4355 19.9187C22.4398 19.9222 22.4438 19.9264 22.4483 19.9299C22.5675 20.0359 22.6892 20.1386 22.8137 20.2384L22.896 20.3034C23.0198 20.4009 23.1463 20.4949 23.2751 20.5856C23.2785 20.5884 23.2821 20.5912 23.2858 20.5939C23.3425 20.6338 23.401 20.6717 23.4587 20.7099C23.4865 20.7285 23.5125 20.748 23.5403 20.7652C23.6327 20.8258 23.7265 20.8843 23.8213 20.9407L23.8611 20.9642L24.1091 21.1059C24.1382 21.1226 24.1678 21.1371 24.1976 21.1526L24.3748 21.2441C24.3838 21.2488 24.3926 21.2522 24.4011 21.2565C24.5205 21.3167 24.6407 21.3735 24.7637 21.4284C24.79 21.4401 24.8168 21.4507 24.8438 21.462C24.942 21.5046 25.0412 21.5458 25.1415 21.585L25.269 21.6326C25.3596 21.6662 25.4505 21.6984 25.542 21.7294L25.6652 21.7693C25.7953 21.8107 25.924 21.8625 26.0597 21.8856C33.0505 23.0651 34.6648 17.5831 34.6648 17.5831C33.21 19.7166 30.3928 20.7352 27.3859 19.9406C27.253 19.9052 27.121 19.8662 26.9901 19.8236C26.95 19.8112 26.9108 19.7981 26.871 19.7882C26.7782 19.7576 26.686 19.7252 26.5943 19.6911L26.469 19.6436C26.3687 19.6082 26.2695 19.5639 26.1715 19.5214C26.1445 19.5096 26.1175 19.4991 26.091 19.4867C25.9676 19.4327 25.846 19.3751 25.726 19.314C25.6643 19.2832 25.6037 19.251 25.543 19.2189L25.4374 19.1638C25.3594 19.1209 25.2823 19.0766 25.206 19.0309L25.1507 18.9954C25.0564 18.939 24.963 18.8809 24.8708 18.8211C24.8423 18.8025 24.8147 18.7856 24.7864 18.7637L24.6049 18.6413C24.4766 18.5506 24.3508 18.4568 24.2271 18.3599L24.142 18.2919C22.8261 17.2336 21.7826 15.7876 21.2869 14.1478C20.767 12.4466 20.8793 10.5381 21.783 8.98897L20.6695 10.5796ZM25.5568 8.85428C24.7586 10.0508 24.6805 11.5365 25.2379 12.8577C25.822 14.2601 27.0188 15.3606 28.4155 15.8819C28.473 15.9039 28.5308 15.9234 28.5926 15.9432L28.6693 15.968C28.7515 15.9942 28.8334 16.0247 28.9181 16.041C32.7784 16.8005 33.8252 14.0237 34.1038 13.6151C33.1866 14.9601 31.6453 15.2829 29.7542 14.8155C29.6053 14.7783 29.4405 14.7233 29.2933 14.6716C29.1083 14.6046 28.927 14.5278 28.7501 14.4416C28.4136 14.2765 28.0945 14.0781 27.7975 13.8493C26.1015 12.5416 25.05 10.0472 26.1544 8.01575" fill="white"/>
<path d="M17.0318 34.2527L16.7703 35.1799L17.0318 34.2531V34.2527Z" fill="white"/>
<path d="M24.7168 32.1298H23.5188C23.4523 32.1298 23.3863 32.183 23.3722 32.2481L22.5215 36.1846C22.5075 36.2495 22.4415 36.3026 22.3753 36.3026H21.5272C20.688 36.3026 20.7851 35.7225 20.96 34.9275L20.9655 34.9035L21.0671 34.3612L21.111 34.1379L21.4981 32.2481C21.5115 32.183 21.468 32.1294 21.4014 32.1294H20.1716C20.1376 32.1305 20.105 32.1427 20.0786 32.1641C20.0523 32.1855 20.0336 32.2149 20.0255 32.2477L19.4715 34.8753C19.1668 36.266 19.2476 37.5924 20.9034 37.6338L20.9512 37.6348H23.5498C23.6163 37.6348 23.682 37.5817 23.6962 37.5165L24.8167 32.2477C24.831 32.1826 24.7873 32.1294 24.7211 32.1294L24.7168 32.1298ZM29.4967 36.3165C29.5635 36.3165 29.603 36.3695 29.5935 36.4348L29.4772 37.0036L29.4967 36.3165Z" fill="white"/>
<path d="M26.2918 35.5843C26.2909 35.5219 26.3617 35.4148 26.4283 35.4148L26.2787 35.4124C26.2078 36.0907 26.2918 35.5843 26.2918 35.5843ZM29.4967 36.3165C29.5635 36.3165 29.603 36.3695 29.5935 36.4348L29.4581 37.0961L29.4967 36.3165Z" fill="white"/>
<path d="M27.2679 37.7029H27.2118H27.275H27.2679ZM9.65439 35.5984L9.84046 34.7734L9.62782 35.7161L9.60301 35.8345L9.65475 35.5978L9.65439 35.5984ZM11.8822 32.1163H10.5663C10.5323 32.1176 10.4996 32.1298 10.473 32.1512C10.4464 32.1724 10.4273 32.2015 10.4185 32.2345L10.169 33.333C10.1648 33.3473 10.1641 33.3623 10.167 33.3769C10.1698 33.3913 10.1761 33.405 10.1854 33.4166C10.1946 33.4283 10.2066 33.4375 10.2201 33.4435C10.2337 33.4495 10.2485 33.4521 10.2633 33.4511H11.5895C11.6561 33.4511 11.722 33.3979 11.7362 33.333L11.9772 32.2318C11.9914 32.1671 11.9488 32.1139 11.8815 32.1139L11.8822 32.1163ZM7.77318 39.8648L8.8584 39.8734C8.538 39.8734 8.00887 39.8674 7.77283 39.8646L7.77318 39.8648Z" fill="white"/>
<path d="M11.5009 33.8299H10.1743C10.1403 33.8312 10.1076 33.8434 10.081 33.8647C10.0544 33.8859 10.0353 33.915 10.0265 33.948L9.65438 35.598L9.60263 35.8348L9.24824 37.5193C9.23067 37.5979 9.20939 37.6757 9.18443 37.7522C9.18443 37.7522 8.93635 38.4894 8.52027 38.4812L8.10738 38.4735C8.07351 38.4744 8.04083 38.4861 8.01408 38.5069C7.9873 38.5277 7.96786 38.5564 7.95854 38.589L7.68387 39.7453C7.67952 39.7596 7.67866 39.7746 7.68132 39.789C7.68398 39.8036 7.69011 39.8173 7.69919 39.8289C7.70824 39.8406 7.72 39.8499 7.73344 39.8561C7.74687 39.8623 7.76159 39.8651 7.77636 39.8646L8.86191 39.8734C9.90246 39.8734 10.4508 39.2966 10.8027 37.638L11.6001 33.9521C11.6143 33.8874 11.571 33.8342 11.5044 33.8342L11.5009 33.8299ZM30.342 37.6356C30.2754 37.6356 30.2356 37.5825 30.2463 37.5172L31.244 32.844L30.342 37.6356Z" fill="white"/>
<path d="M30.2608 37.5765C30.2528 37.5439 30.2574 37.464 30.2715 37.3992L30.7449 35.1807L30.246 37.5173C30.2318 37.5825 30.2751 37.6356 30.3416 37.6356H30.4629C30.3964 37.6356 30.2687 37.609 30.2608 37.5765ZM31.6502 37.609C31.614 37.6232 31.5296 37.6356 31.4631 37.6356H31.5842C31.6181 37.6343 31.6506 37.6219 31.6768 37.6005C31.7031 37.5792 31.7214 37.5497 31.7295 37.5169L31.7537 37.3986C31.7406 37.4637 31.6828 37.5945 31.6474 37.609H31.6502ZM35.8669 33.157L35.9218 33.3839C35.9372 33.4487 35.895 33.5014 35.8286 33.5018" fill="white"/>
<path d="M32.1085 35.6392L32.1574 35.4039L32.3477 34.5125L32.1323 35.5218L32.1085 35.6388V35.6392ZM31.2604 32.7671L31.219 32.9619L30.7454 35.1806L31.2445 32.844L31.2604 32.7675V32.7671Z" fill="white"/>
<path d="M35.9222 33.3839L35.8673 33.157L35.7859 32.8026C35.6781 32.3843 35.3619 32.1422 34.6751 32.1422L31.5137 32.1402C31.4798 32.1413 31.4473 32.1535 31.4209 32.1749C31.3946 32.1962 31.3759 32.2257 31.3678 32.2585L31.3189 32.49L31.248 32.8397L30.2754 37.395C30.2612 37.4603 30.2567 37.5368 30.2648 37.5722C30.273 37.6077 30.4005 37.6315 30.4669 37.6315H31.4663C31.5328 37.6315 31.6168 37.6193 31.6534 37.6049C31.6899 37.5902 31.7434 37.4631 31.7597 37.3943L32.139 35.518L32.5448 33.6169C32.5588 33.552 32.6244 33.4994 32.6908 33.499L35.8354 33.4975C35.9018 33.4975 35.9439 33.4444 35.9286 33.3795L35.9222 33.3839ZM39.9707 31.3307L39.7286 31.3317H38.7221C38.6852 31.3339 38.6494 31.344 38.6166 31.3613C38.5839 31.3785 38.5554 31.4025 38.5328 31.4316L36.3071 34.6922C36.2696 34.7472 36.2267 34.7391 36.2115 34.6746L36.0476 33.9561C36.0388 33.9233 36.0199 33.894 35.9933 33.8729C35.9666 33.8517 35.934 33.8395 35.8999 33.8382H34.4693C34.4025 33.8382 34.3629 33.8903 34.3813 33.9544L35.0192 36.2007C35.0376 36.2644 35.0387 36.3696 35.0228 36.4345L34.7393 37.5216C34.7344 37.5355 34.7331 37.5503 34.7355 37.5649C34.7379 37.5795 34.7439 37.5932 34.7529 37.6049C34.7619 37.6165 34.7738 37.6257 34.7873 37.6317C34.8008 37.6377 34.8156 37.6401 34.8304 37.6388H36.2479C36.3146 37.6388 36.3827 37.5857 36.399 37.5218L36.6825 36.4349C36.7046 36.3584 36.7395 36.286 36.7853 36.2209L40.4023 31.4247C40.4424 31.3714 40.4209 31.3283 40.3541 31.3289L39.975 31.3315L39.9707 31.3307ZM28.6026 34.1436C28.5941 34.2145 28.5276 34.2677 28.4608 34.2677H26.6462C26.5836 34.2677 26.5517 34.2252 26.5613 34.1719L26.5626 34.1624L26.5708 34.1316C26.748 33.6709 27.0971 33.3685 27.7601 33.3685C28.5069 33.3685 28.6526 33.7335 28.602 34.1436H28.6026ZM28.0703 32.0498C25.7419 32.0498 25.1901 33.4632 24.8807 34.8897C24.5709 36.3437 24.5978 37.7037 27.0071 37.7037H27.3891L27.6833 37.7025L29.2164 37.6934C29.2502 37.6919 29.2823 37.6795 29.3083 37.6581C29.3344 37.6367 29.3528 37.6075 29.3606 37.5747L29.5935 36.4364C29.607 36.3711 29.5635 36.3179 29.4968 36.3179H27.3306C26.4694 36.3179 26.2133 36.0889 26.3074 35.416H29.7701C29.8268 35.4149 29.8781 35.3805 29.8984 35.3267C29.9019 35.3172 29.9055 35.3069 29.9068 35.2965C30.4208 33.358 30.2734 32.0513 28.071 32.0513L28.0703 32.0498ZM17.0644 34.1359L17.0318 34.2518C17.0318 34.2522 16.7703 35.1788 16.7703 35.1788L16.5087 36.1052C16.4979 36.138 16.4773 36.1665 16.4499 36.1874C16.4224 36.208 16.3893 36.22 16.3549 36.2215H14.9706C13.9208 36.2215 13.6653 35.4004 13.9208 34.1894C14.176 32.9507 14.6775 32.1805 15.7106 32.1027C17.1226 31.9964 17.4047 32.9894 17.0644 34.1355V34.1359ZM18.0136 36.1506C18.0136 36.1506 18.6657 34.5664 18.8145 33.651C19.0164 32.4257 18.4034 30.6492 16.0342 30.6492C13.6784 30.6492 12.6556 32.3453 12.2654 34.1933C11.8755 36.0503 12.3866 37.6793 14.7285 37.6665L18.3031 37.6534C18.3374 37.6517 18.3703 37.6395 18.3974 37.6185C18.4245 37.5974 18.4444 37.5685 18.4544 37.5357L18.7556 36.3882C18.7605 36.3743 18.7618 36.3593 18.7596 36.3449C18.7573 36.3302 18.7513 36.3165 18.7423 36.3049C18.7334 36.2931 18.7216 36.2839 18.7082 36.2779C18.6947 36.2719 18.68 36.2693 18.6653 36.2704L18.0887 36.2669C18.032 36.2665 18.0001 36.2301 18.0065 36.1819C18.0079 36.1729 18.01 36.1641 18.0136 36.1549V36.1506Z" fill="white"/>
<path d="M29.675 35.0906C29.675 35.1345 29.6396 35.1699 29.5957 35.1699C29.5517 35.1699 29.5162 35.1345 29.5162 35.0906C29.5162 35.0465 29.5517 35.0111 29.5957 35.0111C29.6396 35.0111 29.675 35.0465 29.675 35.0906Z" fill="white"/>
</g>
<defs>
<clipPath id="clip0_166_1012">
<rect width="48" height="48" fill="white"/>
</clipPath>
</defs>
</svg>
