<svg width="48" height="48" viewBox="0 0 48 48" fill="none" xmlns="http://www.w3.org/2000/svg">
<g clip-path="url(#clip0_166_1049)">
<path d="M36.75 0H11.25C5.0368 0 0 5.0368 0 11.25V36.75C0 42.9632 5.0368 48 11.25 48H36.75C42.9632 48 48 42.9632 48 36.75V11.25C48 5.0368 42.9632 0 36.75 0Z" fill="black"/>
<path d="M10.8 33.3825V12.8025C10.8 12.6625 10.86 12.5825 11.0001 12.5825C11.34 12.5825 11.6601 12.5825 12.12 12.5625C12.6 12.5425 13.1001 12.5425 13.6401 12.5225C14.1801 12.5025 14.76 12.5025 15.3801 12.4825C16 12.4625 16.6 12.4625 17.2 12.4625C18.84 12.4625 20.2 12.6625 21.3201 13.0825C22.32 13.4225 23.2401 13.9825 24 14.7225C24.64 15.3625 25.14 16.1425 25.4601 17.0025C25.7601 17.8425 25.92 18.7025 25.92 19.6026C25.92 21.3225 25.5201 22.7425 24.72 23.8626C23.92 24.9825 22.8 25.8225 21.5001 26.3025C20.14 26.8026 18.64 26.9826 17.0001 26.9826C16.5201 26.9826 16.2 26.9826 16 26.9625C15.8001 26.9425 15.52 26.9425 15.1401 26.9425V33.3625C15.16 33.5025 15.06 33.6225 14.92 33.6426C14.9001 33.6426 14.88 33.6426 14.8401 33.6426H11.04C10.8801 33.6426 10.8 33.5625 10.8 33.3825ZM15.16 16.4425V23.1625C15.4401 23.1825 15.7 23.2026 15.94 23.2026H17.0001C17.7801 23.2026 18.5601 23.0826 19.3 22.8426C19.9401 22.6626 20.5 22.2825 20.94 21.7825C21.36 21.2826 21.5601 20.6025 21.5601 19.7226C21.58 19.1025 21.42 18.4825 21.1 17.9425C20.76 17.4225 20.28 17.0225 19.7001 16.8025C18.96 16.5025 18.16 16.3825 17.34 16.4025C16.8201 16.4025 16.36 16.4025 15.9801 16.4225C15.58 16.4025 15.3 16.4225 15.16 16.4425Z" fill="white"/>
<path d="M38.4 21.9426C37.8 21.6225 37.16 21.4026 36.48 21.2625C35.7399 21.1026 35 21.0024 34.2399 21.0024C33.84 20.9826 33.42 21.0426 33.0399 21.1425C32.78 21.2025 32.5599 21.3426 32.42 21.5424C32.3199 21.7026 32.2599 21.9024 32.2599 22.0824C32.2599 22.2624 32.34 22.4424 32.46 22.6026C32.64 22.8225 32.88 23.0025 33.14 23.1426C33.6 23.3826 34.08 23.6025 34.56 23.8026C35.64 24.1626 36.68 24.6624 37.64 25.2624C38.3 25.6824 38.84 26.2425 39.2199 26.9226C39.54 27.5625 39.6999 28.2624 39.68 28.9824C39.6999 29.9226 39.42 30.8625 38.9 31.6425C38.34 32.4426 37.56 33.0624 36.66 33.4224C35.6799 33.8424 34.4799 34.0626 33.0399 34.0626C32.12 34.0626 31.22 33.9825 30.32 33.8025C29.6199 33.6825 28.92 33.4626 28.28 33.1626C28.14 33.0825 28.04 32.9424 28.0599 32.7825V29.3025C28.0599 29.2425 28.08 29.1624 28.14 29.1225C28.2 29.0826 28.26 29.1024 28.32 29.1426C29.1 29.6025 29.9199 29.9226 30.8 30.1224C31.56 30.3225 32.36 30.4224 33.1599 30.4224C33.92 30.4224 34.46 30.3225 34.82 30.1425C35.1399 30.0024 35.36 29.6625 35.36 29.3025C35.36 29.0226 35.1999 28.7625 34.88 28.5024C34.56 28.2426 33.9 27.9426 32.9199 27.5625C31.8999 27.2025 30.96 26.7225 30.08 26.1225C29.46 25.6824 28.94 25.1025 28.56 24.4224C28.2399 23.7825 28.08 23.0826 28.1 22.3824C28.1 21.5226 28.34 20.7024 28.7799 19.9626C29.28 19.1625 30.02 18.5225 30.8799 18.1225C31.82 17.6425 33 17.4225 34.4199 17.4225C35.24 17.4225 36.08 17.4825 36.9 17.6025C37.5 17.6825 38.0799 17.8425 38.6199 18.0625C38.7 18.0825 38.78 18.1625 38.82 18.2425C38.84 18.3225 38.8599 18.4025 38.8599 18.4825V21.7425C38.8599 21.8226 38.82 21.9024 38.76 21.9426C38.58 21.9825 38.48 21.9825 38.4 21.9426Z" fill="white"/>
</g>
<defs>
<clipPath id="clip0_166_1049">
<rect width="48" height="48" fill="white"/>
</clipPath>
</defs>
</svg>
